<svg data-v-0dd9719b="" version="1.0" xmlns="http://www.w3.org/2000/svg" xmlns:xlink="http://www.w3.org/1999/xlink" width="100%" height="100%" viewBox="0 0 340.000000 250.000000" preserveAspectRatio="xMidYMid meet" color-interpolation-filters="sRGB" style="margin: auto;"> <rect data-v-0dd9719b="" x="0" y="0" width="100%" height="100%" fill="#fff" fill-opacity="1" class="background"></rect> <rect data-v-0dd9719b="" x="0" y="0" width="100%" height="100%" fill="url(#watermark)" fill-opacity="1" class="watermarklayer"></rect> <g data-v-0dd9719b="" fill="#333" class="icon-text-wrapper icon-svg-group iconsvg" transform="translate(48.57000732421875,94.0779037475586)"><g class="iconsvg-imagesvg" transform="translate(0,0)"><g><rect fill="#333" fill-opacity="0" stroke-width="2" x="0" y="0" width="60" height="61.84419386093302" class="image-rect"></rect> <svg x="0" y="0" width="60" height="61.84419386093302" filtersec="colorsb4940842451" class="image-svg-svg primary" style="overflow: visible;"><svg xmlns="http://www.w3.org/2000/svg" viewBox="-0.00007700920104980469 0 123.22540283203125 127.01274871826172"><title>资源 98</title><path d="M61.38 89.86c-1.74-.15-3.48-.44-5.21-.45-10.33 0-20.66 0-31-.08a6 6 0 0 1-3.73-1.5C15.2 81.74 9.06 75.52 2.92 69.3-.94 65.4-1 62.55 2.9 58.61c10.9-11 21.88-21.9 32.82-32.85C44.3 17.17 52.86 8.55 61.37 0l19.07 19.2c-4.69 4.65-9.53 9.43-14.35 14.24-9.48 9.46-18.92 19-28.46 28.39-1.59 1.57-1.72 2.48 0 4.16 7.45 7.24 14.75 14.67 22.08 22a24.26 24.26 0 0 1 1.58 1.91z" fill="#fbc64d"></path><path d="M61.3 89.94a15.17 15.17 0 0 0 2.42-1.65Q74.46 77.66 85.14 67c3-3 3-3.19 0-6.14Q75 50.68 64.83 40.51c-.4-.4-.74-.85-1.46-1.71 1.17-.12 1.92-.26 2.67-.26 10.67 0 21.34 0 32 .08a5.94 5.94 0 0 1 3.66 1.56c6.33 6.15 12.53 12.43 18.76 18.68 3.63 3.65 3.72 6.39.07 10.08Q105 84.66 89.29 100.26c-8.48 8.49-17 16.93-25.42 25.47-1.59 1.62-2.61 1.77-4.25.08-4.86-5-9.86-9.92-14.85-14.83-1.32-1.29-1.49-2.27 0-3.7 5.13-5 10.15-10.11 15.17-15.21a14.14 14.14 0 0 0 1.47-2.21z" fill="#258bfa"></path></svg></svg> <!----></g></g> <g transform="translate(67,3.108034133911133)"><g data-gra="path-name" fill-rule="" class="tp-name iconsvg-namesvg" transform="translate(0,0)"><g transform="scale(1)"><g><path d="M39.2-14.76L42.93-14.76 42.93-12.51Q42.93-12.24 42.73-12.04 42.52-11.83 42.25-11.83L42.25-11.83 39.15-11.83 38.97-4.86 41.98-4.86 41.98-2.61Q41.98-2.34 41.78-2.14 41.58-1.93 41.31-1.93L41.31-1.93 38.92-1.93 38.88-0.49Q38.88 4.23 34.16 4.23L34.16 4.23 24.57 4.23 24.57 1.3 32.35 1.3Q33.93 1.3 33.93-0.27L33.93-0.27 33.98-1.93 13.95-1.93 14.85-11.83 11.25-11.83 11.25-14.76 15.07-14.76 15.88-23.54Q14.35-22.5 12.55-21.69L12.55-21.69 12.55-24.61Q14.94-26.23 16.47-29.18 18-32.13 19.08-36.23L19.08-36.23 24.03-36.23Q23.45-33.8 22.63-31.95L22.63-31.95 41.76-31.95 41.76-29.7Q41.76-29.43 41.56-29.23 41.35-29.02 41.09-29.02L41.09-29.02 21.15-29.02Q19.62-26.5 17.28-24.57L17.28-24.57 39.42-24.57 39.2-14.76ZM9.22-26.19Q8.64-27.36 6.68-29.99 4.72-32.63 2.56-34.7L2.56-34.7 7.96-34.7Q10.39-32.13 13.05-26.19L13.05-26.19 9.22-26.19ZM8.73-16.34Q8.14-17.5 6.19-20.14 4.23-22.77 2.07-24.84L2.07-24.84 7.47-24.84Q9.9-22.27 12.55-16.34L12.55-16.34 8.73-16.34ZM20.65-21.64L20.02-14.76 34.24-14.76 34.42-21.64 20.65-21.64ZM27.13-21.06Q28.53-19.57 29.38-18.31 30.24-17.05 30.96-15.43L30.96-15.43 27.13-15.43Q26.23-17.19 22.18-21.06L22.18-21.06 27.13-21.06ZM6.61-12.29Q6.66-12.42 6.82-12.51 6.97-12.6 7.15-12.6L7.15-12.6 10.62-12.6 7.65 3.96 2.25 3.96 6.61-12.29ZM34.02-4.86L34.2-11.83 19.75-11.83 19.13-4.86 34.02-4.86ZM26.32-5.31Q25.43-7.06 21.38-10.93L21.38-10.93 26.32-10.93Q27.72-9.45 28.57-8.19 29.43-6.93 30.15-5.31L30.15-5.31 26.32-5.31ZM69.66-31.95L88.16-31.95 88.16-29.7Q88.16-29.43 87.95-29.23 87.75-29.02 87.48-29.02L87.48-29.02 69.66-29.02 69.66-25.15 85.28-25.15 85.28-0.67Q85.28 4.05 80.55 4.05L80.55 4.05 73.44 4.05 73.44 1.13 78.75 1.13Q80.32 1.13 80.32-0.45L80.32-0.45 80.32-22.23 54.67-22.23 54.67 3.46Q54.67 3.73 54.47 3.94 54.27 4.14 54 4.14L54 4.14 49.73 4.14 49.73-25.15 64.71-25.15 64.71-29.02 47.07-29.02 47.07-31.95 64.71-31.95 64.71-36.23 69.66-36.23 69.66-31.95ZM78.66-4.86L69.93-4.86 69.93 2.34Q69.93 2.61 69.73 2.81 69.53 3.01 69.25 3.01L69.25 3.01 64.98 3.01 64.98-4.86 55.58-4.86 55.58-7.79 64.98-7.79 64.98-12.11 55.89-12.11 55.89-15.03 61.88-15.03Q59.49-18.04 56.88-21.15L56.88-21.15 62.28-21.15Q64.03-18.63 65.97-15.03L65.97-15.03 69.48-15.03Q71.86-18.54 72.72-21.2L72.72-21.2 78.12-21.2Q76.32-18.18 73.58-15.03L73.58-15.03 79.06-15.03 79.06-12.78Q79.06-12.51 78.86-12.31 78.66-12.11 78.39-12.11L78.39-12.11 69.93-12.11 69.93-7.79 79.34-7.79 79.34-5.54Q79.34-5.26 79.13-5.06 78.93-4.86 78.66-4.86L78.66-4.86ZM131.35-34.02L131.35-0.81Q131.35 4 126.63 4L126.63 4 93.69 4 93.69-34.02 131.35-34.02ZM124.83 1.08Q126.41 1.08 126.41-0.49L126.41-0.49 126.41-31.09 98.64-31.09 98.64 1.08 124.83 1.08ZM124.47-24.16Q122.49-19.8 117.31-16.88L117.31-16.88Q121.45-15.12 125.69-14.71L125.69-14.71 125.69-11.79Q118.58-12.69 113.13-14.94L113.13-14.94Q109.75-13.68 105.44-12.78L105.44-12.78Q109.94-12.24 114.46-11.14 118.98-10.04 122.89-8.64L122.89-8.64 122.89-6.61 121.36-6.88Q114.34-8.05 110.41-8.59 106.47-9.13 103.68-9.13L103.68-9.13 103.68-12.46Q101.7-12.06 99.41-11.79L99.41-11.79 99.41-14.71Q104.44-15.21 109.13-16.92L109.13-16.92Q106.11-18.72 104-20.97L104-20.97Q102.02-19.53 99.63-18.68L99.63-18.68 99.63-22.05Q102.15-23.89 103.59-25.76 105.03-27.63 105.61-30.42L105.61-30.42 111.02-30.42Q110.56-28.75 109.58-27.09L109.58-27.09 124.47-27.09 124.47-24.16ZM108.54-23.04Q110.2-20.79 113.31-18.9L113.31-18.9Q117.09-21.15 118.26-24.16L118.26-24.16 107.55-24.16Q107.23-23.76 106.52-23.04L106.52-23.04 108.54-23.04ZM101.39-3.15L101.39-6.97Q105.75-6.75 112.32-5.56 118.89-4.37 122.72-2.92L122.72-2.92 122.72-0.9Q107.91-3.24 101.39-3.15L101.39-3.15ZM170.14-0.81L177.93-0.81 177.93 1.44Q177.93 1.71 177.73 1.91 177.53 2.11 177.25 2.11L177.25 2.11 159.84 2.11 159.84 4Q159.84 4.27 159.64 4.48 159.44 4.68 159.16 4.68L159.16 4.68 154.89 4.68 154.89-21.15Q153.85-20.29 152.19-19.3L152.19-19.3 152.19-22.68Q154.03-24.84 154.98-27.29 155.93-29.74 156.24-31.66 156.56-33.57 156.78-36.23L156.78-36.23 161.73-36.23Q161.37-31.72 160.43-28.89L160.43-28.89 167.72-28.89Q165.47-32.63 162.68-35.73L162.68-35.73 167.63-35.73Q169.51-33.25 171.45-28.89L171.45-28.89 177.34-28.89 177.34-26.64Q177.34-26.37 177.14-26.17 176.94-25.96 176.67-25.96L176.67-25.96 170.14-25.96 170.14-19.53 176.49-19.53 176.49-17.28Q176.49-17.01 176.29-16.81 176.09-16.61 175.81-16.61L175.81-16.61 170.14-16.61 170.14-10.3 176.49-10.3 176.49-8.05Q176.49-7.79 176.29-7.58 176.09-7.38 175.81-7.38L175.81-7.38 170.14-7.38 170.14-0.81ZM151.2-31.23L151.2-19.13 154.17-19.13 154.17-16.88Q154.17-16.61 153.97-16.4 153.76-16.2 153.5-16.2L153.5-16.2 151.2-16.2 151.2-0.72Q151.2 4 146.47 4L146.47 4 140.26 4 140.26 1.08 144.68 1.08Q146.25 1.08 146.25-0.49L146.25-0.49 146.25-8.59Q144-5.89 141.34-3.87 138.69-1.84 136.22-0.49L136.22-0.49 136.22-3.42Q138.74-5.94 140.13-7.45 141.53-8.96 143.08-11.25 144.63-13.54 145.62-16.2L145.62-16.2 137.52-16.2 139.09-27.86 144.04-27.86 142.78-19.13 146.25-19.13 146.25-31.23 137.79-31.23 137.79-34.16 154.98-34.16 154.98-31.9Q154.98-31.63 154.78-31.43 154.57-31.23 154.31-31.23L154.31-31.23 151.2-31.23ZM165.19-19.53L165.19-25.96 159.84-25.96 159.84-19.53 165.19-19.53ZM165.19-10.3L165.19-16.61 159.84-16.61 159.84-10.3 165.19-10.3ZM159.84-7.38L159.84-0.81 165.19-0.81 165.19-7.38 159.84-7.38Z" transform="translate(-2.069999933242798, 36.22999954223633)"></path></g> <!----> <!----> <!----> <!----> <!----> <!----> <!----></g></g> <g data-gra="path-slogan" fill-rule="" class="tp-slogan iconsvg-slogansvg" fill="#333" transform="translate(5,46.90999984741211)"><rect x="0" height="1" y="3.8600001335144043" width="40.29499053955078"></rect> <rect height="1" y="3.8600001335144043" width="40.29499053955078" x="125.56499481201172"></rect> <g transform="translate(43.29499053955078,0)"><g transform="scale(1)"><path d="M2.06-5.06L6.56-5.06L6.56-8.58L7.73-8.58L7.73 0L6.56 0L6.56-3.98L2.06-3.98L2.06 0L0.89 0L0.89-8.58L2.06-8.58L2.06-5.06ZM15.19 0L14.34-2.48L10.88-2.48L9.98 0L8.81 0L12.05-8.58L13.36-8.58L16.45 0L15.19 0ZM12.61-7.31L11.25-3.52L13.92-3.52L12.66-7.31L12.61-7.31ZM17.67-8.58L18.84-8.58L18.84 0L17.67 0L17.67-8.58ZM22.22-8.58L26.53-1.64L26.53-8.58L27.66-8.58L27.66 0L26.34 0L21.98-6.94L21.94-6.94L21.94 0L20.81 0L20.81-8.58L22.22-8.58ZM35.11 0L34.27-2.48L30.80-2.48L29.91 0L28.73 0L31.97-8.58L33.28-8.58L36.38 0L35.11 0ZM32.53-7.31L31.17-3.52L33.84-3.52L32.58-7.31L32.53-7.31ZM38.81-8.58L43.13-1.64L43.13-8.58L44.25-8.58L44.25 0L42.94 0L38.58-6.94L38.53-6.94L38.53 0L37.41 0L37.41-8.58L38.81-8.58ZM51.56-7.59L48.66-7.59L48.66-8.58L55.59-8.58L55.59-7.59L52.69-7.59L52.69 0L51.56 0L51.56-7.59ZM62.30-3.19L62.30-8.58L63.47-8.58L63.47-3.05Q63.33 0.05 59.95 0.14L59.95 0.14Q56.81 0.05 56.67-2.86L56.67-2.86L56.67-8.58L57.84-8.58L57.84-3.19Q57.89-0.84 60-0.80L60-0.80Q62.30-0.84 62.30-3.19L62.30-3.19ZM72.19-8.58L68.95-3.47L68.95 0L67.78 0L67.78-3.47L64.55-8.58L65.91-8.58L68.34-4.45L70.83-8.58L72.19-8.58ZM78.89 0L78.05-2.48L74.58-2.48L73.69 0L72.52 0L75.75-8.58L77.06-8.58L80.16 0L78.89 0ZM76.31-7.31L74.95-3.52L77.63-3.52L76.36-7.31L76.31-7.31Z" transform="translate(-0.890625, 8.578125)"></path></g></g></g></g></g><defs v-gra="od"></defs></svg>